<?xml version="1.0" encoding="UTF-8"?>
<svg width="318px" height="172px" viewBox="0 0 318 172" version="1.1" xmlns="http://www.w3.org/2000/svg" xmlns:xlink="http://www.w3.org/1999/xlink">
    <!-- Generator: Sketch 52.2 (67145) - http://www.bohemiancoding.com/sketch -->
    <title>Group 13</title>
    <desc>Created with Sketch.</desc>
    <defs>
        <linearGradient x1="0%" y1="50%" x2="100%" y2="50%" id="linearGradient-1">
            <stop stop-color="#FF4A00" offset="0%"></stop>
            <stop stop-color="#FF9940" offset="100%"></stop>
        </linearGradient>
        <linearGradient x1="0%" y1="50%" x2="100%" y2="50%" id="linearGradient-2">
            <stop stop-color="#11C395" offset="0%"></stop>
            <stop stop-color="#00F5B5" offset="100%"></stop>
        </linearGradient>
    </defs>
    <g id="Page-1" stroke="none" stroke-width="1" fill="none" fill-rule="evenodd">
        <g id="Designing-icons" transform="translate(-596.000000, -1370.000000)">
            <g id="Group-13" transform="translate(596.000000, 1370.000000)">
                <rect id="Rectangle" stroke="#979797" x="0.5" y="0.5" width="317" height="171"></rect>
                <text id="NEW-ICONS" font-family="HelveticaNeue, Helvetica Neue" font-size="16" font-weight="normal" fill="#000000">
                    <tspan x="119" y="91">NEW ICONS</tspan>
                </text>
                <g id="Group-19" transform="translate(231.000000, 35.000000)">
                    <path d="M1.24927009,25 C0.441815461,22.9719948 0,20.7740202 0,18.4782609 C0,8.27299919 8.73044738,0 19.5,0 C30.2695526,0 39,8.27299919 39,18.4782609 C39,20.7740202 38.5581845,22.9719948 37.7507299,25 L1.24927009,25 Z" id="Combined-Shape" fill="#F5F8F8"></path>
                    <path d="M1.54285714,25 L37.9380601,25" id="Line-3" stroke="#FF0000" stroke-linecap="round"></path>
                    <rect id="Rectangle" stroke="#FF0000" fill="url(#linearGradient-1)" x="7.5" y="8.5" width="12" height="4" rx="2"></rect>
                    <rect id="Rectangle" stroke="#FF0000" fill="url(#linearGradient-1)" x="7.5" y="12.5" width="12" height="4" rx="2"></rect>
                    <rect id="Rectangle" stroke="#FF0000" fill="url(#linearGradient-1)" x="7.5" y="16.5" width="12" height="4" rx="2"></rect>
                    <circle id="Oval" stroke="#FF0000" fill="url(#linearGradient-1)" cx="25" cy="14" r="10"></circle>
                    <circle id="Oval" stroke="#FF0000" fill="#FFFFFF" cx="25" cy="14" r="6"></circle>
                    <text id="$" font-family="AbadiMT-CondensedExtraBold, Abadi MT Condensed Extra Bold" font-size="6" font-style="condensed" font-weight="bold" fill="#000000">
                        <tspan x="24" y="16">$</tspan>
                    </text>
                </g>
                <g id="Group-17" transform="translate(53.000000, 35.000000)">
                    <path d="M1.44031951,24.9166667 C0.654687985,22.8954215 0.224813482,20.7047734 0.224813482,18.4166667 C0.224813482,8.24542252 8.71930282,-3.55271368e-15 19.1977865,-3.55271368e-15 C29.6762701,-3.55271368e-15 38.1707594,8.24542252 38.1707594,18.4166667 C38.1707594,20.7047734 37.7408849,22.8954215 36.9552534,24.9166667 L1.44031951,24.9166667 Z" id="Combined-Shape" fill="#F5F8F8"></path>
                    <path d="M1.80589456,24.9166667 L37.1397865,24.9166667" id="Line-3" stroke="#FF0000" stroke-linecap="round"></path>
                    <ellipse id="Oval" stroke="#FF0000" fill="url(#linearGradient-1)" cx="20.027027" cy="9.75" rx="5.27027027" ry="5.41666667"></ellipse>
                    <ellipse id="Oval" stroke="#FF0000" fill="#FFFFFF" cx="20.0873396" cy="9.73455526" rx="2.50337838" ry="2.57291667"></ellipse>
                    <text id="$" font-family="AbadiMT-CondensedExtraBold, Abadi MT Condensed Extra Bold" font-size="3" font-style="condensed" font-weight="bold" fill="#000000">
                        <tspan x="19.3751414" y="10.73711">$</tspan>
                    </text>
                    <path d="M8.28431069,13.6148864 C9.51101385,12.4226504 11.0873657,11.7713362 12.7045227,11.7713362 C14.1474929,11.7713362 15.5779665,12.3003697 16.7322406,13.2607822 C16.8987764,13.3689099 17.3624243,13.945214 18.2068348,13.945214 L21.0359031,13.945214 C21.7790658,13.945214 22.3416661,14.615776 22.3416661,15.3944658 C22.3416661,16.1935357 21.755858,16.8437176 21.0359031,16.8437176 L16.4657324,16.8437176 C16.1051173,16.8437176 15.8128508,17.1681009 15.8128508,17.5683435 C15.8128508,17.9685862 16.1051173,18.2929695 16.4657324,18.2929695 L21.0359031,18.2929695 C22.4758129,18.2929695 23.6474292,16.9926056 23.6474292,15.3944658 C23.6474292,15.2283113 23.6341675,15.0644213 23.6091744,14.9030788 L30.02042,10.2343367 C30.3254381,10.0251576 30.6954893,9.97618871 31.0362119,10.0996016 C31.3789747,10.2241467 31.6526238,10.508619 31.7865155,10.8805558 C31.9749841,11.4025129 31.8566493,11.9870256 31.4832827,12.3717001 L23.5630136,20.6103571 C23.1993382,20.9851246 22.7259991,21.1914731 22.2299621,21.1914731 L11.5130139,21.1914731 L6.36570609,15.4782507 L8.28431069,13.6148864 Z" id="Path" stroke="#FF0000" fill="url(#linearGradient-1)" fill-rule="nonzero"></path>
                    <path d="M4.07676091,15.8478702 C3.57913827,16.3593157 3.57913827,17.1940586 4.07676091,17.7055041 L9.72756943,23.5132795 C10.2177312,24.0170569 11.0066169,24.0170569 11.4967786,23.5132795 L12.0843934,22.9093421 C12.5820161,22.3978966 12.5820161,21.5631537 12.0843934,21.0517082 L6.43358491,15.2439328 C5.94342318,14.7401554 5.15453746,14.7401554 4.66437573,15.2439328 L4.07676091,15.8478702 Z" id="Rectangle" stroke="#FF0000" fill="url(#linearGradient-1)"></path>
                </g>
                <g id="Group-16" transform="translate(232.000000, 107.000000)">
                    <path d="M1.17122594,23 C0.425883209,21.1342352 0.018053552,19.1120985 0.018053552,17 C0.018053552,7.61115925 8.07692806,-5.32907052e-15 18.0180536,-5.32907052e-15 C27.959179,-5.32907052e-15 36.0180536,7.61115925 36.0180536,17 C36.0180536,19.1120985 35.6102239,21.1342352 34.8648812,23 L1.17122594,23 Z" id="Combined-Shape" fill="#F5F8F8"></path>
                    <path d="M1.51805355,23 L35.0399511,23" id="Line-3" stroke="#FF0000" stroke-linecap="round"></path>
                    <path d="M18.3830036,21.9937297 C23.1050383,21.9937297 26.9330036,18.1657643 26.9330036,13.4437297 C26.9330036,8.72169511 23.1050383,4.89372972 18.3830036,4.89372972 C13.660969,4.89372972 9.83300364,8.72169511 9.83300364,13.4437297 C9.83300364,18.1657643 13.660969,21.9937297 18.3830036,21.9937297 Z" id="Oval" stroke="#FF0000" fill="url(#linearGradient-1)" stroke-linecap="round" stroke-linejoin="round" stroke-dasharray="46" transform="translate(18.383004, 13.443730) rotate(33.000000) translate(-18.383004, -13.443730) "></path>
                    <path d="M12.7620347,18.2462101 L14.0333243,20.7887892 C14.1568189,21.0357785 14.0567067,21.336115 13.8097175,21.4596096 C13.7402897,21.4943235 13.6637332,21.512396 13.5861107,21.512396 L11.0435315,21.512396 C10.7673892,21.512396 10.5435315,21.2885384 10.5435315,21.012396 C10.5435315,20.9347735 10.5616041,20.8582169 10.5963179,20.7887892 L11.8676075,18.2462101 C11.9911021,17.9992208 12.2914386,17.8991086 12.5384279,18.0226033 C12.6351916,18.0709851 12.7136528,18.1494464 12.7620347,18.2462101 Z" id="Triangle" fill="#FF0000" transform="translate(12.314876, 19.741052) rotate(-64.000000) translate(-12.314876, -19.741052) "></path>
                    <circle id="Oval" stroke="#FF0000" fill="#FFFFFF" cx="18.2433209" cy="13.4817159" r="5.5"></circle>
                    <path d="M18.8392257,14.8045722 L19.2805932,18.7768796 C19.3110881,19.051333 19.1133205,19.2985424 18.8388671,19.3290372 C18.8205324,19.3310744 18.8020989,19.3320953 18.7836514,19.3320953 L17.9009164,19.3320953 C17.624774,19.3320953 17.4009164,19.1082377 17.4009164,18.8320953 C17.4009164,18.8136478 17.4019373,18.7952143 17.4039745,18.7768796 L17.845342,14.8045722 C17.8758368,14.5301187 18.1230462,14.3323512 18.3974996,14.3628461 C18.6299234,14.3886709 18.8134009,14.5721484 18.8392257,14.8045722 Z" id="Triangle" stroke="#FF0000" stroke-width="0.8" fill="url(#linearGradient-1)" transform="translate(18.342284, 14.832095) rotate(-180.000000) translate(-18.342284, -14.832095) "></path>
                    <circle id="Oval" fill="#FF0000" cx="18.368871" cy="16.8040057" r="1"></circle>
                </g>
                <g id="Group-15" transform="translate(54.000000, 109.000000)">
                    <path d="M1.97599491,23 C1.23065217,21.1342352 0.822822518,19.1120985 0.822822518,17 C0.822822518,7.61115925 8.88169702,-5.32907052e-15 18.8228225,-5.32907052e-15 C28.763948,-5.32907052e-15 36.8228225,7.61115925 36.8228225,17 C36.8228225,19.1120985 36.4149929,21.1342352 35.6696501,23 L1.97599491,23 Z" id="Combined-Shape" fill="#F5F8F8"></path>
                    <path d="M2.32282252,23 L35.84472,23" id="Line-3" stroke="#FF0000" stroke-linecap="round"></path>
                    <path d="M12.4388733,11.9510024 L12.4388733,20.4510024 C12.4388733,21.2794295 13.1104461,21.9510024 13.9388733,21.9510024 L23.9388733,21.9510024 C24.7673004,21.9510024 25.4388733,21.2794295 25.4388733,20.4510024 L25.4388733,11.9510024 L12.4388733,11.9510024 Z" id="Rectangle" stroke="#FF0000" fill="url(#linearGradient-1)"></path>
                    <path d="M12.4388733,11.9510024 L25.4388733,11.9510024 L25.4388733,10.4510024 C25.4388733,9.62257524 24.7673004,8.95100237 23.9388733,8.95100237 L13.9388733,8.95100237 C13.1104461,8.95100237 12.4388733,9.62257524 12.4388733,10.4510024 L12.4388733,11.9510024 Z" id="Rectangle" stroke="#FF0000" fill="#FFFFFF"></path>
                    <path d="M16.4388733,7.95100237 L16.4388733,9.95100237" id="Line-7" stroke="#FF0000" fill="url(#linearGradient-2)" stroke-linecap="round"></path>
                    <path d="M21.4388733,7.95100237 L21.4388733,9.95100237" id="Line-7" stroke="#FF0000" fill="url(#linearGradient-2)" stroke-linecap="round"></path>
                    <path d="M19.6009806,17.9574593 L20.0423481,21.9297667 C20.072843,22.2042201 19.8750754,22.4514295 19.600622,22.4819243 C19.5822873,22.4839615 19.5638538,22.4849825 19.5454063,22.4849825 L18.6626713,22.4849825 C18.3865289,22.4849825 18.1626713,22.2611248 18.1626713,21.9849825 C18.1626713,21.9665349 18.1636922,21.9481015 18.1657294,21.9297667 L18.6070969,17.9574593 C18.6375917,17.6830059 18.8848011,17.4852384 19.1592545,17.5157332 C19.3916783,17.541558 19.5751558,17.7250356 19.6009806,17.9574593 Z" id="Triangle" stroke="#FF0000" stroke-width="0.8" fill="#FFFFFF" transform="translate(19.104039, 17.984982) rotate(-180.000000) translate(-19.104039, -17.984982) "></path>
                    <circle id="Oval" fill="#FF0000" cx="19.0923554" cy="20.0930478" r="1"></circle>
                </g>
            </g>
        </g>
    </g>
</svg>